<svg id="icons" enable-background="new 0 0 64 64" viewBox="0 0 64 64" xmlns="http://www.w3.org/2000/svg" style="background-color: #B2CAEE;">
	<g>
		<g>
			<path d="m41 11v10h-.7l-5.3 12h-3v-22z" fill="#545c66"/>
		</g>
		<g>
			<path d="m32 11v22h-7-1-1v-22z" fill="#545c66"/>
		</g>
		<g>
			<path d="m32 47v12h-9v-7l4.8-5z" fill="#545c66"/>
		</g>
		<g>
			<path d="m39 47v12h-7v-12z" fill="#545c66"/>
		</g>
		<g>
			<g>
				<path d="m32 34c-.6 0-1-.4-1-1v-22c0-.6.4-1 1-1s1 .4 1 1v22c0 .6-.4 1-1 1z" fill="#aab2bd"/>
			</g>
			<g>
				<path d="m32 60c-.6 0-1-.4-1-1v-12c0-.6.4-1 1-1s1 .4 1 1v12c0 .6-.4 1-1 1z" fill="#aab2bd"/>
			</g>
		</g>
		<g>
			<path d="m12 40c0-3.9 3.1-7 7-7h4c-3.9 0-7 3.1-7 7v5 2c0 3.2-2.5 5.8-5.7 6 1-.1 1.7-1 1.7-2z" fill="#656d78"/>
		</g>
		<g>
			<path d="m41 21h2.4l-5.3 12h-3.1l5.3-12z" fill="#656d78"/>
		</g>
		<g>
			<path d="m43 47v12h-4v-12h-7-4.2l-4.8 5v7h-4v-7-4c-1.7 0-3-1.3-3-3v-5c0-3.9 3.1-7 7-7h1v2c0 2.2 1.8 4 4 4h3c2.2 0 4-1.8 4-4v-2h3.1l5.3-12 2.7-6 2 4 9 6-1 3-8-1-2.1 17c0 1.7-1.3 3-3 3z" fill="#e6e9ed"/>
		</g>
		<g>
			<path d="m60 7-2 4h-17-9-9-17l-2-4h2 53z" fill="#ed5565"/>
		</g>
		<g>
			<path d="m35 33v2c0 2.2-1.8 4-4 4h-3c-2.2 0-4-1.8-4-4v-2h1 7z" fill="#965353"/>
		</g>
		<g>
			<path d="m59 7h-53l26-6h1z" fill="#da4453"/>
		</g>
		<g>
			<path d="m60 59v4h-56v-4h15 4 9 7 4z" fill="#ed5565"/>
		</g>
	</g>
</svg>