<svg id="icons" enable-background="new 0 0 64 64" viewBox="0 0 64 64" xmlns="http://www.w3.org/2000/svg" style="background-color: #B2CAEE;">
	<g>
		<path d="m32 9h-19-11v28h6v-6h5 7v1l4-1h8 8v3h-14-2-2-2l-12 3h15 26 12v-28z" fill="#545c66"/>
		<g>
			<path d="m3 38c-.6 0-1-.4-1-1v-28c0-.6.4-1 1-1s1 .4 1 1v28c0 .6-.4 1-1 1z" fill="#844747"/>
		</g>
		<g>
			<path d="m60 38c-.6 0-1-.4-1-1v-28c0-.6.4-1 1-1s1 .4 1 1v28c0 .6-.4 1-1 1z" fill="#844747"/>
		</g>
		<g>
			<circle cx="32" cy="49" fill="#e6e9ed" r="2"/>
		</g>
		<g>
			<path d="m32 54v3h-27v-16h27v3c-2.8 0-5 2.2-5 5s2.2 5 5 5z" fill="#ffd2a6"/>
		</g>
		<g>
			<path d="m59 41v16h-27v-3c2.8 0 5-2.2 5-5s-2.2-5-5-5v-3z" fill="#ffd2a6"/>
		</g>
		<g>
			<path d="m63 37v24h-62v-24h1 6 15 26 12zm-4 20v-16h-27-27v16h27z" fill="#965353"/>
		</g>
		<g>
			<path d="m32 54c-2.8 0-5-2.2-5-5s2.2-5 5-5 5 2.2 5 5-2.2 5-5 5zm0-7c-1.1 0-2 .9-2 2s.9 2 2 2 2-.9 2-2-.9-2-2-2z" fill="#ed5565"/>
		</g>
		<g>
			<path d="m55 19c0-2.8-2.2-5-5-5s-5 2.2-5 5 2.2 5 5 5 5-2.2 5-5zm-5-8c4.4 0 8 3.6 8 8s-3.6 8-8 8-8-3.6-8-8 3.6-8 8-8z" fill="#ed5565"/>
		</g>
		<g>
			<circle cx="14" cy="19" fill="#ed5565" r="2"/>
		</g>
		<g>
			<path d="m32 24c2.8 0 5-2.2 5-5s-2.2-5-5-5-5 2.2-5 5 2.2 5 5 5zm0-13c4.4 0 8 3.6 8 8s-3.6 8-8 8-8-3.6-8-8 3.6-8 8-8z" fill="#ed5565"/>
		</g>
		<g>
			<path d="m37 19c0 2.8-2.2 5-5 5s-5-2.2-5-5 2.2-5 5-5 5 2.2 5 5zm-5-2c-1.1 0-2 .9-2 2s.9 2 2 2 2-.9 2-2-.9-2-2-2z" fill="#e6e9ed"/>
		</g>
		<g>
			<path d="m19 19c0-2.8-2.2-5-5-5s-5 2.2-5 5 2.2 5 5 5 5-2.2 5-5zm-5-8c4.4 0 8 3.6 8 8s-3.6 8-8 8-8-3.6-8-8 3.6-8 8-8z" fill="#ed5565"/>
		</g>
		<g>
			<circle cx="32" cy="19" fill="#ed5565" r="2"/>
		</g>
		<g>
			<path d="m50 24c-2.8 0-5-2.2-5-5s2.2-5 5-5 5 2.2 5 5-2.2 5-5 5zm0-7c-1.1 0-2 .9-2 2s.9 2 2 2 2-.9 2-2-.9-2-2-2z" fill="#e6e9ed"/>
		</g>
		<g>
			<circle cx="50" cy="19" fill="#ed5565" r="2"/>
		</g>
		<g>
			<path d="m14 14c2.8 0 5 2.2 5 5s-2.2 5-5 5-5-2.2-5-5 2.2-5 5-5zm2 5c0-1.1-.9-2-2-2s-2 .9-2 2 .9 2 2 2 2-.9 2-2z" fill="#e6e9ed"/>
		</g>
		<g>
			<path d="m62 6 1 3h-2-29-19-11-1l1-3z" fill="#965353"/>
		</g>
		<g>
			<path d="m61 3 1 3h-60l1-3z" fill="#844747"/>
		</g>
		<g>
			<path d="m23 47h-14c-.6 0-1-.4-1-1s.4-1 1-1h14c.6 0 1 .4 1 1s-.4 1-1 1z" fill="#f7c292"/>
		</g>
		<g>
			<path d="m23 50h-14c-.6 0-1-.4-1-1s.4-1 1-1h14c.6 0 1 .4 1 1s-.4 1-1 1z" fill="#f7c292"/>
		</g>
		<g>
			<path d="m19 53h-6c-.6 0-1-.4-1-1s.4-1 1-1h6c.6 0 1 .4 1 1s-.4 1-1 1z" fill="#f7c292"/>
		</g>
		<g>
			<path d="m55 47h-14c-.6 0-1-.4-1-1s.4-1 1-1h14c.6 0 1 .4 1 1s-.4 1-1 1z" fill="#f7c292"/>
		</g>
		<g>
			<path d="m55 50h-14c-.6 0-1-.4-1-1s.4-1 1-1h14c.6 0 1 .4 1 1s-.4 1-1 1z" fill="#f7c292"/>
		</g>
		<g>
			<path d="m51 53h-6c-.6 0-1-.4-1-1s.4-1 1-1h6c.6 0 1 .4 1 1s-.4 1-1 1z" fill="#f7c292"/>
		</g>
		<g>
			<g>
				<path d="m40 30v3h-14-2-2-2v-2l4-1h8z" fill="#e6e9ed"/>
			</g>
			<g>
				<path d="m20 31v2l-12 3v-6h5 7z" fill="#844747"/>
			</g>
			<g>
				<path d="m56 31c-.6 0-1-.4-1-1v-1c0-.6.4-1 1-1s1 .4 1 1v1c0 .6-.4 1-1 1z" fill="#aab2bd"/>
			</g>
			<path d="m27 32.5c-.3 0-.5.2-.5.5 0 1.4-1.1 2.5-2.5 2.5s-2.5-1.1-2.5-2.5c0-.3-.2-.5-.5-.5s-.5.2-.5.5c0 1.9 1.6 3.5 3.5 3.5s3.5-1.6 3.5-3.5c0-.3-.2-.5-.5-.5z" fill="#ccd1d9"/>
			<g>
				<path d="m24 35c-.3 0-.5-.1-.7-.3l-1-1c-.4-.4-.4-1 0-1.4s1-.4 1.4 0l1 1c.4.4.4 1 0 1.4-.2.2-.4.3-.7.3z" fill="#aab2bd"/>
			</g>
			<path d="m49 29c-.6 0-1 .4-1 1v7h2v-7c0-.6-.4-1-1-1z" fill="#656d78"/>
			<g>
				<path d="m56 31h-16c-.6 0-1-.4-1-1s.4-1 1-1h16c.6 0 1 .4 1 1s-.4 1-1 1z" fill="#ccd1d9"/>
			</g>
			<g>
				<path d="m40 34h-16c-.6 0-1-.4-1-1s.4-1 1-1h15v-1h-15c-.6 0-1-.4-1-1s.4-1 1-1h16c.6 0 1 .4 1 1v3c0 .6-.4 1-1 1z" fill="#e6e9ed"/>
			</g>
			<g>
				<path d="m24 34h-4c-.6 0-1-.4-1-1s.4-1 1-1h4c.6 0 1 .4 1 1s-.4 1-1 1z" fill="#e6e9ed"/>
			</g>
			<g>
				<path d="m20 32c-.4 0-.9-.3-1-.8s.2-1.1.7-1.2l4-1c.5-.1 1.1.2 1.2.7s-.2 1.1-.7 1.2l-4 1c0 .1-.1.1-.2.1z" fill="#e6e9ed"/>
			</g>
			<g>
				<path d="m8 37c-.2 0-.4-.1-.6-.2-.3-.2-.4-.5-.4-.8v-6c0-.6.4-1 1-1h12c.6 0 1 .4 1 1v3c0 .5-.3.9-.8 1l-12 3s-.1 0-.2 0zm1-6v3.7l10-2.5v-1.2z" fill="#844747"/>
			</g>
		</g>
	</g>
</svg>