<svg id="icons" enable-background="new 0 0 64 64" viewBox="0 0 64 64" xmlns="http://www.w3.org/2000/svg" style="background-color: #B2CAEE;">
	<g>
		<g>
			<path d="m23 7c-.6 0-1-.4-1-1v-4c0-.6.4-1 1-1s1 .4 1 1v4c0 .6-.4 1-1 1z" fill="#ccd1d9"/>
		</g>
		<g>
			<path d="m26 4h-6c-.6 0-1-.4-1-1s.4-1 1-1h6c.6 0 1 .4 1 1s-.4 1-1 1z" fill="#e6e9ed"/>
		</g>
		<g>
			<path d="m35 46c-.6 0-1-.4-1-1s.4-1 1-1c4.4 0 8-3.6 8-8 0-.6.4-1 1-1s1 .4 1 1c0 5.5-4.5 10-10 10z" fill="#e6e9ed"/>
		</g>
		<g>
			<path d="m44 37c-.6 0-1-.4-1-1v-7c0-.6.4-1 1-1s1 .4 1 1v7c0 .6-.4 1-1 1z" fill="#e6e9ed"/>
		</g>
		<g>
			<path d="m31 13v1c-1.2-.9-3.6-2-8-2s-6.8 1.1-8 2v-1c0-4.4 3.6-8 8-8s8 3.6 8 8z" fill="#5d9cec"/>
		</g>
		<g>
			<path d="m31 14c.7.6 1 1 1 1h-1-16-1s.3-.4 1-1c1.2-.9 3.6-2 8-2s6.8 1.1 8 2z" fill="#656d78"/>
		</g>
		<g>
			<path d="m23 62v1h-7v-1c0-1.9 1.6-3.5 3.5-3.5s3.5 1.6 3.5 3.5z" fill="#e6e9ed"/>
		</g>
		<g>
			<path d="m23 25c1.5 0 2.8-.4 4-1.1v2.1c0 2.2-1.8 4-4 4s-4-1.8-4-4v-2.1c1.2.7 2.5 1.1 4 1.1z" fill="#d3b1a9"/>
		</g>
		<g>
			<path d="m47 29h-6l1-3.2v-.1c.6.2 1.3.4 2 .4s1.3-.1 2-.4v.1z" fill="#da4453"/>
		</g>
		<g>
			<path d="m31 15v2c0 3-1.6 5.5-4 6.9-1.2.7-2.5 1.1-4 1.1s-2.8-.4-4-1.1c-2.4-1.4-4-4-4-6.9v-2z" fill="#eac6bb"/>
		</g>
		<g>
			<path d="m30 62v1h-7v-1c0-1.9 1.6-3.5 3.5-3.5s3.5 1.6 3.5 3.5z" fill="#e6e9ed"/>
		</g>
		<g>
			<path d="m44 5c5 0 9 4 9 9 0 4.3-3 10.1-7 11.6-.6.2-1.3.4-2 .4s-1.3-.1-2-.4c-4-1.5-7-7.3-7-11.6 0-5 4-9 9-9z" fill="#ed5565"/>
		</g>
		<g>
			<path d="m35 45v.5c0 1.4-1.1 2.5-2.5 2.5s-2.5-1.1-2.5-2.5v-1.5h-7-7v1.5c0 1.4-1.1 2.5-2.5 2.5s-2.5-1.1-2.5-2.5v-15.5c0-2.2 1.8-4 4-4h4c0 2.2 1.8 4 4 4s4-1.8 4-4h4c2.2 0 4 1.8 4 4z" fill="#48cfad"/>
		</g>
		<g>
			<path d="m30 45.5v16.5c0-1.9-1.6-3.5-3.5-3.5s-3.5 1.6-3.5 3.5c0-1.9-1.6-3.5-3.5-3.5s-3.5 1.6-3.5 3.5v-16.5-1.5h7 7z" fill="#656d78"/>
		</g>
		<path d="m15 34c-.6 0-1 .4-1 1v12.9c1.1-.2 2-1.2 2-2.4v-10.5c0-.5-.4-1-1-1z" fill="#37bc9b"/>
		<path d="m31 34c.6 0 1 .4 1 1v12.9c-1.1-.2-2-1.2-2-2.4v-10.5c0-.5.4-1 1-1z" fill="#37bc9b"/>
		<path d="m23 48c-.6 0-1 .4-1 1v10.6c.6.6 1 1.5 1 2.4 0-.9.4-1.8 1-2.4v-10.6c0-.6-.4-1-1-1z" fill="#545c66"/>
	</g>
</svg>