<svg id="icons" enable-background="new 0 0 64 64" viewBox="0 0 64 64" xmlns="http://www.w3.org/2000/svg" style="background-color: #B2CAEE;">
	<g>
		<g>
			<g>
				<path d="m25 23.5v4h-4c0-1.7-1.3-3-3-3 0-.6 0-1 0-1v-3c1.7 0 3 1.3 3 3z" fill="#ccd1d9"/>
			</g>
			<g>
				<path d="m25 5.5v18h-4c0-1.7-1.3-3-3-3v-7-4s0-.4 0-1c1.7 0 3-1.3 3-3z" fill="#e6e9ed"/>
			</g>
			<g>
				<path d="m56 20.6v4c-.2 0-.3 0-.5 0-1.7 0-3 1.3-3 3h-3.5v-4h3.5c0-1.7 1.3-3 3-3 .2-.1.3-.1.5 0z" fill="#ccd1d9"/>
			</g>
			<g>
				<path d="m25 23.5h24v4h-24z" fill="#da4453"/>
			</g>
			<g>
				<path d="m25 5.5h24v18h-24z" fill="#ed5565"/>
			</g>
			<g>
				<path d="m56 12.5v8.1c-.2 0-.3 0-.5 0-1.7 0-3 1.3-3 3h-3.5v-18h3.5c0 1.7 1.3 3 3 3 .2 0 .3 0 .5-.1z" fill="#e6e9ed"/>
			</g>
		</g>
		<g>
			<g>
				<path d="m44 12.5h-14c-.6 0-1-.4-1-1s.4-1 1-1h14c.6 0 1 .4 1 1s-.4 1-1 1z" fill="#da4453"/>
			</g>
			<g>
				<path d="m44 15.5h-14c-.6 0-1-.4-1-1s.4-1 1-1h14c.6 0 1 .4 1 1s-.4 1-1 1z" fill="#da4453"/>
			</g>
			<g>
				<path d="m40 18.5h-6c-.6 0-1-.4-1-1s.4-1 1-1h6c.6 0 1 .4 1 1s-.4 1-1 1z" fill="#da4453"/>
			</g>
		</g>
		<g>
			<g>
				<path d="m39 39.5 19.3-2.9c.2 0 .4-.1.7-.1 2.2 0 4 1.8 4 4 0 1.5-.8 2.8-2 3.5l-27 14.5-23-3v-23h9l15.7 3.1c1.9.3 3.3 1.9 3.3 3.9z" fill="#eac6bb"/>
				<path d="m41 39.2-2 .3c0 2.2-1.8 4-4 4-.1 0-.2 0-.3 0l-12.6-1c-.5 0-1 .4-1.1.9 0 .6.4 1 .9 1.1l12.5 1h.6c3.3 0 6-2.7 6-6 0-.1 0-.2 0-.3z" fill="#d3b1a9"/>
				<g>
					<path d="m8 56.5c-.6 0-1-.2-1-.5s0-1 0-1.5v-21c0-.5 0-1.2 0-1.5s.4-.5 1-.5h3c.5 0 1 .5 1 1v23c0 .5-.5 1-1 1z" fill="#e6e9ed"/>
				</g>
				<path d="m8 29.5h-7v29h7c.5 0 1-.5 1-1s0-1.5 0-2v-23c0-.5 0-1.5 0-2 0-.6-.5-1-1-1z" fill="#656d78"/>
			</g>
			<g>
				<path d="m4 55.5c-.6 0-1-.4-1-1s.4-1 1-1c.6 0 1 .4 1 1s-.4 1-1 1z" fill="#ffce54"/>
			</g>
		</g>
	</g>
</svg>