<svg id="icons" enable-background="new 0 0 64 64" viewBox="0 0 64 64" xmlns="http://www.w3.org/2000/svg" style="background-color: #B2CAEE;">
	<g>
		<g>
			<g>
				<path d="m14.8 5.9c-1.5 1.1-2.8 2.4-3.9 3.9-1.1-.4-1.9-1.5-1.9-2.8 0-1.7 1.4-3 3-3 1.3 0 2.4.8 2.8 1.9z" fill="#ffd2a6"/>
			</g>
			<g>
				<path d="m35 30.6s3 5.4 3 12.4c-5 0-9 4.5-9 10 0 1.8.4 3.5 1.2 5h-12.4c.8-1.5 1.2-3.2 1.2-5 0-5.5-4-10-9-10 0-7 3-12.4 3-12.4 2.9 2.7 6.7 4.4 11 4.4s8.1-1.7 11-4.4z" fill="#844747"/>
			</g>
			<g>
				<path d="m36 1c3.3 0 6 2.7 6 6 0 2.4-1.4 4.4-3.4 5.4-.4-.9-.9-1.8-1.5-2.6 1.1-.4 1.9-1.5 1.9-2.8 0-1.7-1.3-3-3-3-1.3 0-2.4.8-2.8 1.9-.8-.6-1.7-1.1-2.6-1.5.9-2 3-3.4 5.4-3.4z" fill="#844747"/>
			</g>
			<g>
				<path d="m38.6 12.4c.9 2 1.4 4.2 1.4 6.6 0 2.9-.8 5.6-2.1 8-.8 1.3-1.7 2.6-2.9 3.6-2.9 2.7-6.7 4.4-11 4.4s-8.1-1.7-11-4.4c-1.1-1.1-2.1-2.3-2.9-3.6-1.3-2.4-2.1-5.1-2.1-8 0-2.4.5-4.6 1.4-6.6.4-.9.9-1.8 1.5-2.6 1.1-1.5 2.4-2.8 3.9-3.9.8-.6 1.7-1.1 2.6-1.5 2-.9 4.2-1.4 6.6-1.4s4.6.5 6.6 1.4c.9.4 1.8.9 2.6 1.5 1.5 1.1 2.8 2.4 3.9 3.9.6.8 1.1 1.7 1.5 2.6zm-6.6 1.6c0-1.1-.9-2-2-2s-2 .9-2 2 .9 2 2 2 2-.9 2-2zm0 11c0-3.9-3.6-7-8-7s-8 3.1-8 7 3.6 7 8 7 8-3.1 8-7zm-12-11c0-1.1-.9-2-2-2s-2 .9-2 2 .9 2 2 2 2-.9 2-2z" fill="#965353"/>
			</g>
			<g>
				<circle cx="24" cy="22" fill="#656d78" r="2"/>
			</g>
			<g>
				<path d="m36 4c1.7 0 3 1.3 3 3 0 1.3-.8 2.4-1.9 2.8-1.1-1.5-2.4-2.8-3.9-3.9.4-1.1 1.5-1.9 2.8-1.9z" fill="#ffd2a6"/>
			</g>
			<g>
				<path d="m26 22c0-1.1-.9-2-2-2s-2 .9-2 2 .9 2 2 2 2-.9 2-2zm-2-4c4.4 0 8 3.1 8 7s-3.6 7-8 7-8-3.1-8-7 3.6-7 8-7z" fill="#ffd2a6"/>
			</g>
			<g>
				<circle cx="30" cy="14" fill="#434a54" r="2"/>
			</g>
			<g>
				<circle cx="18" cy="14" fill="#434a54" r="2"/>
			</g>
			<g>
				<path d="m12 1c2.4 0 4.5 1.4 5.4 3.4-.9.4-1.8.9-2.6 1.5-.4-1.1-1.5-1.9-2.8-1.9-1.6 0-3 1.3-3 3 0 1.3.8 2.4 1.9 2.8-.6.8-1.1 1.7-1.5 2.6-2-1-3.4-3-3.4-5.4 0-3.3 2.7-6 6-6z" fill="#844747"/>
			</g>
			<g>
				<circle cx="56" cy="45" fill="#da4453" r="4"/>
			</g>
			<g>
				<path d="m60 50.7v10.3l-4-2-4 2v-10.3c1.1.8 2.5 1.3 4 1.3s2.9-.5 4-1.3z" fill="#da4453"/>
			</g>
			<g>
				<ellipse cx="38" cy="53" fill="#ffd2a6" rx="5" ry="6"/>
			</g>
			<g>
				<path d="m37.9 27s11.9 12.5 6.1 18.5c-1.6-1.5-3.7-2.5-6-2.5 0-7-3-12.4-3-12.4 1.1-1 2.1-2.3 2.9-3.6z" fill="#773e3e"/>
			</g>
			<g>
				<circle cx="53" cy="25" fill="#a0d468" r="10"/>
			</g>
			<g>
				<path d="m44 45.5c1.8 1.8 3 4.5 3 7.5 0 5.5-4 10-9 10-3.3 0-6.2-2-7.8-5-.8-1.5-1.2-3.2-1.2-5 0-5.5 4-10 9-10 2.3 0 4.4 1 6 2.5zm-1 7.5c0-3.3-2.2-6-5-6s-5 2.7-5 6 2.2 6 5 6 5-2.7 5-6z" fill="#965353"/>
			</g>
			<g>
				<path d="m60 45c0-2.2-1.8-4-4-4s-4 1.8-4 4 1.8 4 4 4 4-1.8 4-4zm-4-7c3.9 0 7 3.1 7 7 0 2.4-1.2 4.5-3 5.7-1.1.8-2.5 1.3-4 1.3s-2.9-.5-4-1.3c-1.8-1.3-3-3.4-3-5.7 0-3.9 3.1-7 7-7z" fill="#ed5565"/>
			</g>
			<g>
				<path d="m10.1 27c.8 1.3 1.7 2.6 2.9 3.6 0 0-3 5.4-3 12.4-2.3 0-4.4 1-6 2.5-5.8-6 6.1-18.5 6.1-18.5z" fill="#773e3e"/>
			</g>
			<g>
				<ellipse cx="10" cy="53" fill="#ffd2a6" rx="5" ry="6"/>
			</g>
			<g>
				<path d="m19 53c0 1.8-.4 3.5-1.2 5-1.6 3-4.5 5-7.8 5-5 0-9-4.5-9-10 0-3 1.2-5.6 3-7.5 1.6-1.5 3.7-2.5 6-2.5 5 0 9 4.5 9 10zm-4 0c0-3.3-2.2-6-5-6s-5 2.7-5 6 2.2 6 5 6 5-2.7 5-6z" fill="#965353"/>
			</g>
		</g>
		<g>
			<g>
				<path d="m52 29c-.3 0-.5-.1-.7-.3l-2-2c-.4-.4-.4-1 0-1.4s1-.4 1.4 0l2 2c.4.4.4 1 0 1.4-.2.2-.4.3-.7.3z" fill="#e6e9ed"/>
			</g>
			<g>
				<path d="m52 29c-.3 0-.5-.1-.7-.3-.4-.4-.4-1 0-1.4l5-5c.4-.4 1-.4 1.4 0s.4 1 0 1.4l-5 5c-.2.2-.4.3-.7.3z" fill="#e6e9ed"/>
			</g>
		</g>
	</g>
</svg>